<?xml version="1.0" encoding="UTF-8"?>
<svg width="173.09mm" height="145.97mm" version="1.1" viewBox="0 0 173.09 145.97" xmlns="http://www.w3.org/2000/svg">
 <g transform="translate(-16.743 -56.164)">
  <g transform="matrix(2.8869 0 0 2.8869 75.508 -131.09)">
   <g transform="matrix(.75961 0 0 .75961 169.59 35.663)">
    <path d="m-183.32 38.533c-17.671-0.15178-35.334-0.08713-52.98 0.01367l0.37109 0.01758c-6.8327-0.65836-12.926 4.3229-13.951 10.984l-0.0371 0.24609-4e-3 0.24609c-0.23436 13.669-0.0698 27.292-0.11718 40.855l0.0234-0.38672c-5e-3 6.702 2.2199 13.047 11.426 14.348 18.534 0.17509 37.409 0.0766 53.287 0.084l-0.43555-0.0254c6.9754 0.84043 13.493-4.1483 14.475-11.129l0.0332-0.22852 2e-3 -0.23047c0.18714-13.738 0.0364-27.436 0.0547-41.086l-0.0234 0.40625c0.81864-7.2212-4.809-13.53-11.859-14.104l-0.13086-0.0098z" color="#000000" color-rendering="auto" dominant-baseline="auto" image-rendering="auto" shape-rendering="auto" solid-color="#000000" style="font-feature-settings:normal;font-variant-alternates:normal;font-variant-caps:normal;font-variant-ligatures:normal;font-variant-numeric:normal;font-variant-position:normal;isolation:auto;mix-blend-mode:normal;shape-padding:0;text-decoration-color:#000000;text-decoration-line:none;text-decoration-style:solid;text-indent:0;text-orientation:mixed;text-transform:none;white-space:normal"/>
    <rect x="-243.46" y="45.076" width="65.768" height="53.295" ry="8.6935" stroke-width=".26458"/>
    <rect transform="matrix(.99216 -.12499 -.24178 .97033 0 0)" x="-223.77" y="34.006" width="47.686" height="33.093" ry="5.3981" fill="#dbe3de" stroke-width=".17753"/>
    <path d="m-215.29 87.612a1.5429 1.5429 0 0 0-1.4021 0.96838c-0.99042 2.3738-1.1636 4.0238-0.74729 5.3432 0.41635 1.3194 1.065 1.8947 1.3617 2.6075 0.18191 0.43712 0.0635 0.87016-0.21897 1.3681-0.25044 0.44151-0.51901 0.71335-0.58465 0.77813h3.6195c0.35905-0.92109 0.54172-2.1089 0.0329-3.3314-0.54471-1.3089-1.1276-1.8998-1.2698-2.3503-0.14216-0.45049-0.20218-1.1722 0.65481-3.2262a1.5429 1.5429 0 0 0-1.4462-2.1574z" color="#000000" color-rendering="auto" dominant-baseline="auto" fill="#93ac9d" image-rendering="auto" shape-rendering="auto" solid-color="#000000" style="font-feature-settings:normal;font-variant-alternates:normal;font-variant-caps:normal;font-variant-ligatures:normal;font-variant-numeric:normal;font-variant-position:normal;isolation:auto;mix-blend-mode:normal;shape-padding:0;text-decoration-color:#000000;text-decoration-line:none;text-decoration-style:solid;text-indent:0;text-orientation:mixed;text-transform:none;white-space:normal"/>
    <g fill="#b4c5c0">
     <rect transform="matrix(-.99803 .062755 .20748 -.97824 0 0)" x="212.38" y="-53.196" width="5.2894" height="3.7717" ry="1.8859"/>
     <rect transform="matrix(-.99179 .12789 .172 -.9851 0 0)" x="191.8" y="-37.783" width="25.157" height="3.7185" ry="1.8593"/>
     <rect transform="matrix(-.99803 .062755 .20748 -.97824 0 0)" x="180.05" y="-50.919" width="5.2894" height="3.7717" ry="1.8859"/>
     <rect transform="matrix(-.99803 .062755 .20748 -.97824 0 0)" x="184.16" y="-56.561" width="5.2894" height="3.7717" ry="1.8859"/>
     <rect transform="matrix(-.99803 .062755 .20748 -.97824 0 0)" x="177.76" y="-56.113" width="5.2894" height="3.7717" ry="1.8859"/>
     <rect transform="matrix(-.99803 .062755 .20748 -.97824 0 0)" x="213.26" y="-68.614" width="5.2894" height="3.7717" ry="1.8859"/>
     <rect transform="matrix(-.99803 .062755 .20748 -.97824 0 0)" x="206.68" y="-68.039" width="5.2894" height="3.7717" ry="1.8859"/>
     <rect transform="matrix(-.99803 .062755 .20748 -.97824 0 0)" x="180.86" y="-72.927" width="5.2894" height="3.7717" ry="1.8859"/>
     <rect transform="matrix(-.99803 .062755 .20748 -.97824 0 0)" x="213.71" y="-76.141" width="5.2894" height="3.7717" ry="1.8859"/>
    </g>
    <g stroke="#93ac9d">
     <path d="m-201.8 44.465c-0.51325 6.0666-2.6114 12.246-5.8548 16.047 0.67137-4.9065-0.38459-11.144-2.6837-16.047zm-26.359 0c4.4962 4.0203 8.122 8.82 9.7709 13.471-6.7424-5.2283-18.088-8.5599-26.32-7.2307 1.211-3.6342 4.6309-6.2406 8.6823-6.2406zm47.744 1.2773c2.6826 1.5921 4.4737 4.5163 4.4737 7.8746v9.4794c-7.7361 4.3796-17.562 6.7351-24.862 5.3849 8.8559-3.6156 18.541-13.434 20.242-21.985 0.0966-0.17784 0.12964-0.45407 0.14567-0.7536z" fill="#f60" stroke-width="2.0784"/>
     <path d="m-238.14 101.24c-4.8852-0.60417-8.7868-5.4337-8.2476-10.327 0.0475-13.602-0.11745-27.207 0.11569-40.806 0.71559-4.6492 5.2715-8.3645 9.9944-7.9094 17.642-0.10077 35.287-0.16457 52.928-0.01304 4.8867 0.39779 9.0889 5.1304 8.5305 10.056-0.0183 13.68 0.13252 27.363-0.0538 41.04-0.68299 4.8571-5.5765 8.5994-10.426 8.0152-17.614-0.0114-35.228 0.0724-52.841-0.0566zm24.897-2.7683c9.4907-0.24656 18.996 0.086 28.484-0.22365 4.3349-0.74316 7.6021-5.1088 7.0672-9.4648-0.0127-12.042 0.12096-24.086-0.0472-36.127-0.47058-4.499-4.9185-8.1179-9.4095-7.5601-16.318 0.03234-32.641-0.15088-48.956 0.07205-4.5219 0.57722-7.8966 5.0805-7.3311 9.5745-0.0565 12.154 5e-3 24.308 0.0111 36.461 0.80169 4.1279 4.8034 7.6094 9.0856 7.1308 6.8364 0.0247 13.68-7e-3 20.507 0.20649l0.58902-0.0696z" fill="#93ac9d" stroke-linecap="round" stroke-width=".1732"/>
     <path d="m-238.14 101.24c-4.8852-0.60417-8.7868-5.4337-8.2476-10.327 0.0475-13.602-0.11745-27.207 0.11569-40.806 0.71559-4.6492 5.2715-8.3645 9.9944-7.9094 17.642-0.10077 35.287-0.16457 52.928-0.01304 4.8867 0.39779 9.0889 5.1304 8.5305 10.056-0.0183 13.68 0.13252 27.363-0.0538 41.04-0.68299 4.8571-5.5765 8.5994-10.426 8.0152-17.614-0.0114-35.228 0.0724-52.841-0.0566zm24.897-2.7683c9.4907-0.24656 18.996 0.086 28.484-0.22365 4.3349-0.74316 7.6021-5.1088 7.0672-9.4648-0.0127-12.042 0.12096-24.086-0.0472-36.127-0.47058-4.499-4.9185-8.1179-9.4095-7.5601-16.318 0.03234-32.641-0.15088-48.956 0.07205-4.5219 0.57722-7.8966 5.0805-7.3311 9.5745-0.0565 12.154 5e-3 24.308 0.0111 36.461 0.80169 4.1279 4.8034 7.6094 9.0856 7.1308 6.8364 0.0247 13.68-7e-3 20.507 0.20649l0.58902-0.0696z" fill="#93ac9d" stroke-linecap="round" stroke-width=".1732"/>
    </g>
   </g>
  </g>
 </g>
</svg>
